<svg xmlns="http://www.w3.org/2000/svg" width="65.969" height="44" viewBox="0 0 65.969 44">
  <defs>
    <style>
      .cls-1 {
        fill: #675190;
        fill-rule: evenodd;
      }
    </style>
  </defs>
  <path class="cls-1" d="M377.373,1417.93l-3.535,1.44v7.15a1.992,1.992,0,0,0,2,1.99h21.783l-3.7-3.69H377.534v-6.96Zm35.809,18.7,8.777-8.78a2.49,2.49,0,0,0-.409-3.45l-5.052-5.05a2.223,2.223,0,0,0-.189-0.23l-3.505-3.53-0.475-.47a3,3,0,0,0-2.3-.97H410.01a2.068,2.068,0,0,0-.252.04h-0.034a2.032,2.032,0,0,0-.243.08l-0.056.03-0.167.09a0.233,0.233,0,0,1-.066.04,1.645,1.645,0,0,0-.185.16H409l-0.5.5a1.783,1.783,0,0,1-2.482,2.48l-0.5.5a1.784,1.784,0,0,1-2.481,2.48l-0.5.5s0,0.01,0,.01a2.22,2.22,0,0,0-.153.18c-0.016.02-.03,0.05-0.044,0.07-0.033.05-.063,0.11-0.09,0.16-0.008.02-.019,0.04-0.027,0.06a1.876,1.876,0,0,0-.08.24,0.309,0.309,0,0,1-.007.04,1.8,1.8,0,0,0-.039.25,0.068,0.068,0,0,0,0,.02,2.667,2.667,0,0,0,.33,1.43l-4.556-4.55-0.309-.31-0.436-.44a2.505,2.505,0,0,0-2.724-.69,0.067,0.067,0,0,1-.035.02,1.355,1.355,0,0,0-.182.11,0.189,0.189,0,0,0-.061.04c-0.065.05-.128,0.1-0.186,0.15,0,0.01,0,.01-0.007.01l-0.5.5a0.047,0.047,0,0,0,0,.01,1.293,1.293,0,0,0-.156.19,0.243,0.243,0,0,0-.042.06,1.3,1.3,0,0,0-.1.18c-0.006.01-.013,0.02-0.018,0.03a2.506,2.506,0,0,0,.687,2.73l0.437,0.44,0.307,0.3,9.575,9.58-2.812-.14-0.48-.02-0.68-.02a2.77,2.77,0,0,0-2.706,1.56c-0.006.02-.009,0.03-0.014,0.05a1.852,1.852,0,0,0-.068.22c-0.006.03-.013,0.06-0.017,0.09a1.773,1.773,0,0,0-.031.27,0.018,0.018,0,0,0,0,.01l0.032,0.54a0.015,0.015,0,0,0,0,.01,1.746,1.746,0,0,0,.015.27c0,0.03.008,0.06,0.013,0.08a2.3,2.3,0,0,0,.054.24,0.294,0.294,0,0,1,.012.04,2.747,2.747,0,0,0,2.612,1.71l0.681,0.02,0.479,0.01,1.638,0.11h0.007l1.519,0.05,2.564,0.09h0.092l4.468,0.3a2.216,2.216,0,0,0,1.665-.7Zm-38.421-28.4a5.615,5.615,0,0,1,2.086-.41,5.191,5.191,0,0,1,.687.05v-6.17h33.159v10.25a5.464,5.464,0,0,1,3.2,1.59l0.482,0.48,0.012,0.02V1400a2,2,0,0,0-2-2h-36.56a2,2,0,0,0-2,2v8.6l0.283-.11Zm-3.162,18.24,0-8.59,2.237-.91h0l2.7-1.1,0.459-.18,0.652-.26a2.85,2.85,0,0,0,1.921-2.59c0-.02,0-0.03,0-0.05a1.967,1.967,0,0,0-.03-0.24c-0.006-.03-0.01-0.06-0.018-0.09a1.984,1.984,0,0,0-.082-0.27c0-.01,0-0.01,0-0.01l-0.31-.77c0-.01,0-0.01-0.006-0.01a1.958,1.958,0,0,0-.127-0.26c-0.015-.02-0.031-0.05-0.046-0.07a1.663,1.663,0,0,0-.147-0.2l-0.029-.03a2.385,2.385,0,0,0-1.455-.76h-0.022l-0.2-.03h-0.04c-0.062,0-.126-0.01-0.189-0.01h-0.054a1.075,1.075,0,0,1-.179.01,0.146,0.146,0,0,0-.065.01,1.008,1.008,0,0,0-.172.02,0.18,0.18,0,0,0-.072.01l-0.169.03c-0.025.01-.05,0.01-0.075,0.02-0.058.01-.116,0.03-0.175,0.04a0.172,0.172,0,0,1-.067.02l-0.241.09-0.651.26-0.46.19-0.642.25V1411l-6.317,2.57a2.906,2.906,0,0,0-1.912,2.33,0.035,0.035,0,0,1-.006.02l-0.327,10.17a2.306,2.306,0,0,0,.727,1.72c0.009,0.01.015,0.02,0.024,0.03l9.061,9.07a2.567,2.567,0,0,0,3.566-.43l5.74-5.74h-8.525A4.27,4.27,0,0,1,371.6,1426.47Zm-6.152,2.2a2.848,2.848,0,0,0-3.911,3.92l8.871,8.87a2.844,2.844,0,0,0,3.914-3.91Zm60.6,0.42a2.531,2.531,0,0,0-3.5-.42l-8.873,8.88a2.845,2.845,0,0,0,3.915,3.91l8.872-8.87A2.528,2.528,0,0,0,426.049,1429.09Z" transform="translate(-361.031 -1398)"/>
</svg>
