<svg xmlns="http://www.w3.org/2000/svg" width="14" height="18" viewBox="0 0 14 18">
  <defs>
    <style>
      .cls-1 {
        fill: #909090;
        fill-rule: evenodd;
      }
    </style>
  </defs>
  <path id="Forma_1" data-name="Forma 1" class="cls-1" d="M1408.94,25.293l0.07-.068,0.07,0.068a2.8,2.8,0,0,0,1.89.932,2.885,2.885,0,0,0,1.91-.85l0.06-.046,0.13,0.069a2.374,2.374,0,0,0,.41.314l0.13,0.065-0.02.014,0.05,0.031c0.12,0.072.24,0.142,0.38,0.216a3.827,3.827,0,0,0,.4.161,12.569,12.569,0,0,1,1.31.552l0.13,0.04a2.276,2.276,0,0,1,.94.646,10.254,10.254,0,0,1,1.2,4.45,0.84,0.84,0,0,1-.19.71,20.752,20.752,0,0,1-6.39,1.4h-0.01l-0.02-.005a0.306,0.306,0,0,0-.08-0.011h-0.02c-0.18.014-.33,0.02-0.48,0.02h-0.11a21.48,21.48,0,0,1-6.5-1.4,0.835,0.835,0,0,1-.2-0.69,10.829,10.829,0,0,1,1.19-4.455,2.188,2.188,0,0,1,.92-0.659,9.7,9.7,0,0,0,2.47-1.131c0.02-.019.05-0.05,0.08-0.083C1408.71,25.53,1408.82,25.411,1408.94,25.293Zm-1.08-5.6,0.02-.029a0.308,0.308,0,0,0,.12-0.295c-0.23-1.47-.08-1.082-0.03-1.235a3.57,3.57,0,0,1,1.93-2.024,1.282,1.282,0,0,1,.25-0.069l0.03-.007,0.21-.012v0.014l0.04,0a1.091,1.091,0,0,0,.14-0.021l0.04-.012a6.821,6.821,0,0,1,1.27.3l0.51,0.185a2.834,2.834,0,0,1,1.45.941,1.641,1.641,0,0,1,.36,1.967,0.294,0.294,0,0,0,.04.241l0.04,0.056a1.6,1.6,0,0,1-.06,1.016,0.843,0.843,0,0,1-.2.458,0.285,0.285,0,0,0-.07.157c-0.25,1.563-1.58,3.311-2.98,3.311-1.19,0-2.55-1.608-2.8-3.309a0.261,0.261,0,0,0-.07-0.164,0.978,0.978,0,0,1-.21-0.509A1.479,1.479,0,0,1,1407.86,19.694Z" transform="translate(-1404 -16)"/>
</svg>
