<svg xmlns="http://www.w3.org/2000/svg" width="10" height="20" viewBox="0 0 10 20">
  <defs>
    <style>
      .cls-1 {
        fill: #675190;
        fill-rule: evenodd;
      }
    </style>
  </defs>
  <path id="Forma_1_copy_4" data-name="Forma 1 copy 4" class="cls-1" d="M397,184.34v3.435a5.006,5.006,0,1,0,10,0v-3.359C405.726,185.087,402.235,186.381,397,184.34Zm5.645-7.308a1.115,1.115,0,0,1,1.125-.936,2.678,2.678,0,0,0,2.964-3.1h-1.011c0,2.56-2.186,2.284-2.186,2.284-1.842,0-2.23,1.067-2.288,1.769A5.159,5.159,0,0,0,397,182.213v1.459c1.61,0.684,5.973,2.13,10,0v-1.457A5.153,5.153,0,0,0,402.646,177.032Zm0.221,4.973a0.866,0.866,0,1,1-1.73,0v-2.476a0.866,0.866,0,1,1,1.73,0v2.476Z" transform="translate(-397 -173)"/>
</svg>
