<svg xmlns="http://www.w3.org/2000/svg" width="15" height="30" viewBox="0 0 15 30">
  <defs>
    <style>
      .cls-1 {
        fill: #fff;
        fill-rule: evenodd;
      }
    </style>
  </defs>
  <path id="Forma_1" data-name="Forma 1" class="cls-1" d="M408,358.008v5.147a7.505,7.505,0,1,0,15,0v-5.034C421.083,359.128,415.849,361.066,408,358.008Zm8.463-10.951c-0.007-1.314,1.687-1.4,1.687-1.4,5.113,0,4.444-4.645,4.444-4.645H421.08c0,3.836-3.277,3.423-3.277,3.423-2.762,0-3.345,1.6-3.431,2.651a7.733,7.733,0,0,0-6.37,7.738v2.186c2.414,1.025,8.955,3.192,15,0v-2.183A7.724,7.724,0,0,0,416.465,347.057Zm0.332,7.452a1.3,1.3,0,1,1-2.6,0V350.8a1.3,1.3,0,1,1,2.6,0v3.711Z" transform="translate(-408 -341)"/>
</svg>
