<svg xmlns="http://www.w3.org/2000/svg" width="20.625" height="19.375" viewBox="0 0 20.625 19.375">
  <defs>
    <style>
      .cls-1 {
        fill: #675190;
        fill-rule: evenodd;
      }
    </style>
  </defs>
  <path id="Shape_5_copy" data-name="Shape 5 copy" class="cls-1" d="M403.7,234.307a10.223,10.223,0,0,0-5.534,18.875,10.015,10.015,0,0,1-4.028-8.071,9.566,9.566,0,1,1,19.119,0,10.018,10.018,0,0,1-4.031,8.074A10.223,10.223,0,0,0,403.7,234.307Zm-0.071,2.987a6.92,6.92,0,0,0-4.015,12.6,6.708,6.708,0,0,1-2.281-5.067,6.3,6.3,0,1,1,12.594,0,6.705,6.705,0,0,1-2.269,5.057A6.92,6.92,0,0,0,403.625,237.294Zm-0.01,2.764a4.21,4.21,0,0,0-4.225,4.195,4.163,4.163,0,0,0,1.22,2.946,4.14,4.14,0,0,1-.734-2.359,3.718,3.718,0,1,1,7.42,0,4.133,4.133,0,0,1-.836,2.507,4.167,4.167,0,0,0,1.379-3.094A4.209,4.209,0,0,0,403.615,240.058Zm2.2,5.4a2.286,2.286,0,0,0-4.552,0,2.938,2.938,0,0,0,.077.656,0.009,0.009,0,0,1,0,.005l0.977,7.177a0.465,0.465,0,0,0,.423.4h1.6a0.464,0.464,0,0,0,.423-0.4l0.981-7.177c0-.007,0-0.012,0-0.019A2.878,2.878,0,0,0,405.818,245.461Z" transform="translate(-393.375 -234.313)"/>
</svg>
