<svg xmlns="http://www.w3.org/2000/svg" width="22" height="21" viewBox="0 0 22 21">
  <defs>
    <style>
      .cls-1 {
        fill: #fff;
        fill-rule: evenodd;
      }
    </style>
  </defs>
  <path id="Forma_1" data-name="Forma 1" class="cls-1" d="M1500.71,525.271l0.08-.075,0.08,0.075a3.315,3.315,0,0,0,2.19,1.031,3.4,3.4,0,0,0,2.21-.94l0.06-.05,0.16,0.076a3,3,0,0,0,.47.347l0.15,0.072-0.02.016,0.06,0.034c0.13,0.079.28,0.157,0.44,0.238a3.635,3.635,0,0,0,.46.179c0.02,0.01.72,0.238,1.52,0.61l0.14,0.044a2.562,2.562,0,0,1,1.09.714c1.18,1.757,1.38,5.594,1.4,6.023a0.91,0.91,0,0,1-.23.785,24.9,24.9,0,0,1-7.38,1.545l-0.03,0-0.02-.006a0.232,0.232,0,0,0-.08-0.012h-0.03c-0.21.015-.39,0.022-0.55,0.022h-0.13a25.809,25.809,0,0,1-7.52-1.543,0.927,0.927,0,0,1-.23-0.763c0-.041.14-4.183,1.38-6.029a2.506,2.506,0,0,1,1.07-.728,11.415,11.415,0,0,0,2.84-1.251,0.515,0.515,0,0,0,.1-0.091C1500.45,525.533,1500.57,525.4,1500.71,525.271Zm8.21,1.036-0.1-.032c-0.18-.083-0.37-0.166-0.57-0.245a4.154,4.154,0,0,0,.67-0.379,0.455,0.455,0,0,0,.08-0.07,3.336,3.336,0,0,1,.24-0.242l0.05-.047,0.05,0.048a2.458,2.458,0,0,0,1.63.768,2.538,2.538,0,0,0,1.65-.7l0.04-.031,0.11,0.052a1.844,1.844,0,0,0,.35.259l0.09,0.044-0.01.011,0.06,0.034c0.1,0.06.21,0.118,0.33,0.177a3.29,3.29,0,0,0,.33.135,10.1,10.1,0,0,1,1.14.451l0.1,0.033a1.959,1.959,0,0,1,.81.526c0.87,1.31,1.01,4.148,1.03,4.464a0.7,0.7,0,0,1-.16.571,17.532,17.532,0,0,1-5.02,1.112c-0.09-1.3-.41-4.371-1.47-5.967l-0.05-.055A3.336,3.336,0,0,0,1508.92,526.307Zm-0.61-4.742,0.02-.022a0.255,0.255,0,0,0,.1-0.255,3.994,3.994,0,0,1-.02-1.828,2.938,2.938,0,0,1,1.65-1.654,1.108,1.108,0,0,1,.21-0.056l0.03-.007,0.16-.009v0.012l0.05,0a0.777,0.777,0,0,0,.1-0.014l0.05-.012a6.152,6.152,0,0,1,1.09.248l0.44,0.152a2.389,2.389,0,0,1,1.23.77,2.7,2.7,0,0,1,.31,2.424,0.256,0.256,0,0,0,.04.208l0.03,0.046a1.188,1.188,0,0,1-.05.823,0.73,0.73,0,0,1-.17.369,0.219,0.219,0,0,0-.06.136c-0.22,1.277-1.36,2.705-2.55,2.705-1.02,0-2.18-1.314-2.39-2.705a0.265,0.265,0,0,0-.07-0.142,0.771,0.771,0,0,1-.17-0.413A1.132,1.132,0,0,1,1508.31,521.565Zm-8.85-1.377,0.03-.032a0.329,0.329,0,0,0,.14-0.326,5.16,5.16,0,0,1-.03-2.47,3.993,3.993,0,0,1,2.22-2.238,1.775,1.775,0,0,1,.29-0.077l0.04-.007,0.24-.014v0.016l0.05-.006a1.111,1.111,0,0,0,.15-0.023l0.06-.013a8.324,8.324,0,0,1,1.47.336l0.59,0.2a3.321,3.321,0,0,1,1.67,1.041,3.69,3.69,0,0,1,.42,3.279,0.314,0.314,0,0,0,.04.267l0.05,0.062a1.662,1.662,0,0,1-.07,1.123,1,1,0,0,1-.23.506,0.339,0.339,0,0,0-.08.173c-0.3,1.727-1.83,3.659-3.45,3.659-1.38,0-2.95-1.778-3.23-3.658a0.334,0.334,0,0,0-.09-0.182,1.046,1.046,0,0,1-.24-0.562A1.6,1.6,0,0,1,1499.46,520.188Z" transform="translate(-1495 -515)"/>
</svg>
