<svg xmlns="http://www.w3.org/2000/svg" width="15.469" height="15.781" viewBox="0 0 15.469 15.781">
  <defs>
    <style>
      .cls-1 {
        fill: #675190;
        fill-rule: evenodd;
      }
    </style>
  </defs>
  <path id="Shape_4_copy" data-name="Shape 4 copy" class="cls-1" d="M401.8,216.072c1.5,1.5,3.238,2.933,3.924,2.247,0.983-.983,1.589-1.839,3.756-0.1s0.5,2.9-.449,3.855c-1.1,1.1-5.2.057-9.245-3.99s-5.091-8.142-3.991-9.241c0.952-.952,2.113-2.616,3.855-0.449s0.886,2.771-.1,3.754C398.871,212.837,400.3,214.573,401.8,216.072Zm6.034-2.13-1.408-.029a1.986,1.986,0,0,0,.481-1.3,1.963,1.963,0,0,0-1.948-1.978,1.922,1.922,0,0,0-1.288.5l-0.034-1.431a3.113,3.113,0,0,1,1.322-.294,3.183,3.183,0,0,1,3.159,3.207A3.235,3.235,0,0,1,407.838,213.942ZM410.714,214l-1.365-.028a4.728,4.728,0,0,0,.169-1.251,4.606,4.606,0,0,0-4.57-4.641,4.535,4.535,0,0,0-1.341.2l-0.033-1.391a5.821,5.821,0,0,1,1.374-.165,5.949,5.949,0,0,1,5.9,5.994A6.053,6.053,0,0,1,410.714,214Z" transform="translate(-395.375 -206.719)"/>
</svg>
