<svg xmlns="http://www.w3.org/2000/svg" width="18" height="17" viewBox="0 0 18 17">
  <defs>
    <style>
      .cls-1 {
        fill: #909090;
        fill-rule: evenodd;
      }
    </style>
  </defs>
  <path id="Forma_1" data-name="Forma 1" class="cls-1" d="M1295.42,30.815l-1.88-1.778a0.629,0.629,0,0,0-.43-0.172,0.621,0.621,0,0,0-.49.242,7.934,7.934,0,0,1-1.8,1.7,0.551,0.551,0,0,0-.25.421,0.53,0.53,0,0,0,.18.449l1.88,1.778a2.052,2.052,0,0,0,2.79,0A1.8,1.8,0,0,0,1295.42,30.815Zm-9.58.994a7.642,7.642,0,0,0,7.84-7.4,7.853,7.853,0,0,0-15.68,0A7.642,7.642,0,0,0,1285.84,31.809Zm0-12.587a5.347,5.347,0,0,1,5.49,5.182,5.5,5.5,0,0,1-10.98,0A5.353,5.353,0,0,1,1285.84,19.222Z" transform="translate(-1278 -17)"/>
</svg>
