<svg xmlns="http://www.w3.org/2000/svg" width="23" height="25" viewBox="0 0 23 25">
  <defs>
    <style>
      .cls-1 {
        fill: #fff;
        fill-rule: evenodd;
      }
    </style>
  </defs>
  <path id="Forma_1" data-name="Forma 1" class="cls-1" d="M496.036,357h-7.072v6.775l-2.937-2.922-3.067,2.922V357h-8v12h21.072V357ZM474,355.988h23v-7.081h-5.462c0.283-.115.563-0.488,0.839-0.621l0.021-.01c0.223-.108.486-0.236,0.761-0.382,1.363-.722,3.035-1.895,1.756-3.371-0.632-.73-1.872-0.523-2.691-0.361a10.3,10.3,0,0,0-2.476.815,10.67,10.67,0,0,0-3.678,2.917c-0.1.124-.2,0.252-0.3,0.381-0.046.062-.092,0.123-0.136,0.186a0.8,0.8,0,0,0-.062.1,0.784,0.784,0,0,0-.061-0.1c-0.045-.063-0.091-0.124-0.136-0.186-0.1-.129-0.195-0.257-0.3-0.381a10.649,10.649,0,0,0-3.678-2.917,10.288,10.288,0,0,0-2.476-.815c-0.819-.163-2.059-0.369-2.69.361-1.28,1.477.392,2.649,1.755,3.371,0.275,0.146.538,0.274,0.761,0.382l0.022,0.01c0.275,0.133.555,0.506,0.838,0.621H474v7.081Zm15.892-9.446a7.175,7.175,0,0,1,3.676-1.065c0.724,0.069-.182.566-0.4,0.7-0.283.176-.568,0.349-0.862,0.5a13.223,13.223,0,0,1-1.879.832q-0.645.221-1.3,0.379c-0.449.109-.9,0.2-1.359,0.263,0.087-.089.176-0.177,0.267-0.263A8.668,8.668,0,0,1,489.894,346.542Zm-9.17.973a13.062,13.062,0,0,1-1.879-.832c-0.294-.155-0.579-0.328-0.862-0.5-0.218-.136-1.124-0.633-0.4-0.7a7.175,7.175,0,0,1,3.676,1.065,8.668,8.668,0,0,1,1.856,1.352c0.091,0.086.18,0.174,0.267,0.263-0.457-.065-0.91-0.154-1.359-0.263S481.154,347.662,480.724,347.515Z" transform="translate(-474 -344)"/>
</svg>
