<svg xmlns="http://www.w3.org/2000/svg" width="20" height="19" viewBox="0 0 20 19">
  <defs>
    <style>
      .cls-1 {
        fill: #675190;
        fill-rule: evenodd;
      }
    </style>
  </defs>
  <path id="Rounded_Rectangle_1_copy_4" data-name="Rounded Rectangle 1 copy 4" class="cls-1" d="M410.7,147.786h-5.091l1.926-2.19a0.44,0.44,0,0,0-.027-0.636,0.482,0.482,0,0,0-.66.027l-2.11,2.3-2.579-4.076a0.479,0.479,0,0,0-.642-0.15h0a0.443,0.443,0,0,0-.155.619l2.542,4.1h-8.6A2.265,2.265,0,0,0,393,150v8.09a2.265,2.265,0,0,0,2.3,2.216h15.4a2.265,2.265,0,0,0,2.3-2.216V150A2.265,2.265,0,0,0,410.7,147.786Zm0.576,9.952a1.133,1.133,0,0,1-1.149,1.108H395.871a1.133,1.133,0,0,1-1.15-1.108v-7.382a1.133,1.133,0,0,1,1.15-1.107h14.254a1.132,1.132,0,0,1,1.149,1.107v7.382Zm-13.055,3.137h9.312a0.563,0.563,0,1,1,0,1.125h-9.312A0.563,0.563,0,1,1,398.219,160.875Z" transform="translate(-393 -143)"/>
</svg>
