<svg xmlns="http://www.w3.org/2000/svg" width="29.53" height="30" viewBox="0 0 29.53 30">
  <defs>
    <style>
      .cls-1 {
        fill: #5c5c5c;
        fill-rule: evenodd;
      }
    </style>
  </defs>
  <path class="cls-1" d="M1104.3,1488a15,15,0,1,0,14.76,15A14.885,14.885,0,0,0,1104.3,1488Zm7.44,11.98c0,0.16.01,0.32,0.01,0.49a10.6,10.6,0,0,1-10.59,10.75,10.351,10.351,0,0,1-5.7-1.7,6.543,6.543,0,0,0,.89.06,7.413,7.413,0,0,0,4.62-1.62,3.749,3.749,0,0,1-3.48-2.63,3.26,3.26,0,0,0,.7.07,3.514,3.514,0,0,0,.98-0.13,3.773,3.773,0,0,1-2.98-3.71v-0.05a3.6,3.6,0,0,0,1.69.48,3.832,3.832,0,0,1-1.16-5.05,10.522,10.522,0,0,0,7.67,3.95,4.124,4.124,0,0,1-.1-0.86,3.715,3.715,0,0,1,6.44-2.59,7.214,7.214,0,0,0,2.36-.92,3.762,3.762,0,0,1-1.63,2.09,7.234,7.234,0,0,0,2.13-.59A7.844,7.844,0,0,1,1111.74,1499.98Z" transform="translate(-1089.53 -1488)"/>
</svg>
