<svg xmlns="http://www.w3.org/2000/svg" width="29.53" height="30" viewBox="0 0 29.53 30">
  <defs>
    <style>
      .cls-1 {
        fill: #5c5c5c;
        fill-rule: evenodd;
      }
    </style>
  </defs>
  <path class="cls-1" d="M1136.93,1504.26H1138v5.4h1.03v-5.4h1.07v-0.92h-3.17v0.92Zm6.34-4.48a0.487,0.487,0,0,0,.34-0.12,0.422,0.422,0,0,0,.12-0.32v-2.8a0.323,0.323,0,0,0-.13-0.27,0.483,0.483,0,0,0-.33-0.1,0.436,0.436,0,0,0-.3.1,0.342,0.342,0,0,0-.12.27v2.8a0.442,0.442,0,0,0,.11.32A0.4,0.4,0,0,0,1143.27,1499.78Zm2.28,5.16a0.94,0.94,0,0,0-.42.11,1.491,1.491,0,0,0-.39.33v-2.04h-0.93v6.32h0.93v-0.36a1.043,1.043,0,0,0,.87.42,0.764,0.764,0,0,0,.62-0.26,1.206,1.206,0,0,0,.21-0.76v-2.59a1.367,1.367,0,0,0-.23-0.87A0.774,0.774,0,0,0,1145.55,1504.94Zm-0.05,3.63a0.515,0.515,0,0,1-.08.32,0.28,0.28,0,0,1-.25.1,0.585,0.585,0,0,1-.22-0.05,0.733,0.733,0,0,1-.21-0.16v-2.91a0.734,0.734,0,0,1,.18-0.14,0.492,0.492,0,0,1,.2-0.05,0.336,0.336,0,0,1,.28.12,0.551,0.551,0,0,1,.1.36v2.41Zm-3.3-.03a1.322,1.322,0,0,1-.28.25,0.57,0.57,0,0,1-.26.1,0.22,0.22,0,0,1-.18-0.08,0.371,0.371,0,0,1-.06-0.23V1505h-0.92v3.9a1.045,1.045,0,0,0,.16.62,0.574,0.574,0,0,0,.48.21,1.133,1.133,0,0,0,.54-0.15,2.012,2.012,0,0,0,.52-0.43v0.51h0.92V1505h-0.92v3.54Zm1.03-20.54a15,15,0,1,0,14.76,15A14.879,14.879,0,0,0,1143.23,1488Zm2.39,7.41h1.03v3.93a0.469,0.469,0,0,0,.06.27,0.286,0.286,0,0,0,.21.08,0.586,0.586,0,0,0,.29-0.11,1.4,1.4,0,0,0,.32-0.28v-3.89h1.03v5.13h-1.03v-0.57a2.308,2.308,0,0,1-.59.48,1.286,1.286,0,0,1-.6.16,0.626,0.626,0,0,1-.54-0.23,1.082,1.082,0,0,1-.18-0.68v-4.29Zm-3.83,1.17a1.2,1.2,0,0,1,.41-0.95,1.724,1.724,0,0,1,1.12-.35,1.481,1.481,0,0,1,1.05.37,1.221,1.221,0,0,1,.41.96v2.65a1.312,1.312,0,0,1-.4,1.03,1.547,1.547,0,0,1-1.1.38,1.516,1.516,0,0,1-1.09-.39,1.364,1.364,0,0,1-.4-1.04v-2.66Zm-2.81-3,0.75,2.78h0.08l0.71-2.78h1.18l-1.35,4.07v2.89h-1.16v-2.76l-1.38-4.2h1.17Zm13.51,14.65a3.338,3.338,0,0,1-3.31,3.36h-11.49a3.338,3.338,0,0,1-3.31-3.36v-2.71a3.331,3.331,0,0,1,3.31-3.36h11.49a3.331,3.331,0,0,1,3.31,3.36v2.71Zm-4.17-3.34a1.365,1.365,0,0,0-1.01.38,1.3,1.3,0,0,0-.39.98v2.1a1.454,1.454,0,0,0,.36,1.05,1.237,1.237,0,0,0,.97.39,1.373,1.373,0,0,0,1.03-.36,1.522,1.522,0,0,0,.34-1.08v-0.24h-0.94v0.21a1.014,1.014,0,0,1-.09.53,0.381,0.381,0,0,1-.32.12,0.323,0.323,0,0,1-.31-0.14,1.026,1.026,0,0,1-.09-0.51v-0.88h1.75v-1.19a1.372,1.372,0,0,0-.34-1.01A1.232,1.232,0,0,0,1148.32,1504.89Zm0.36,1.83h-0.81v-0.47a0.726,0.726,0,0,1,.09-0.42,0.369,0.369,0,0,1,.32-0.13,0.331,0.331,0,0,1,.3.13,0.647,0.647,0,0,1,.1.42v0.47Z" transform="translate(-1128.47 -1488)"/>
</svg>
